<svg width="30" height="36" viewBox="0 0 30 36" fill="none" xmlns="http://www.w3.org/2000/svg">
<path d="M22.1593 0.0180158C22.0828 -0.0674842 19.3266 0.0517658 16.9281 2.65502C14.5296 5.25602 14.8986 8.23952 14.9526 8.31602C15.0066 8.39252 18.3726 8.51177 20.5213 5.48552C22.6701 2.45927 22.2358 0.105766 22.1593 0.0180158ZM29.6158 26.4173C29.5078 26.2013 24.3846 23.6408 24.8616 18.7178C25.3386 13.7925 28.6303 12.4425 28.6821 12.2963C28.7338 12.15 27.3388 10.5188 25.8606 9.69302C24.7752 9.11083 23.574 8.77728 22.3438 8.71652C22.1008 8.70977 21.2571 8.50277 19.5223 8.97752C18.3793 9.29027 15.8031 10.3028 15.0943 10.3433C14.3833 10.3838 12.2683 9.16877 9.99358 8.84702C8.53783 8.56577 6.99433 9.14177 5.88958 9.58502C4.78708 10.026 2.69008 11.2815 1.22308 14.6183C-0.243917 17.9528 0.523333 23.2358 1.07233 24.8783C1.62133 26.5185 2.47858 29.2073 3.93658 31.1693C5.23258 33.3833 6.95158 34.92 7.66933 35.442C8.38708 35.964 10.4121 36.3105 11.8161 35.5928C12.9456 34.8998 14.9841 34.5015 15.7896 34.5308C16.5928 34.56 18.1768 34.8773 19.7991 35.7435C21.0838 36.1868 22.2988 36.0023 23.5161 35.5073C24.7333 35.01 26.4951 33.1245 28.5516 29.3018C29.3323 27.5243 29.6878 26.5635 29.6158 26.4173Z" fill="black"/>
<path d="M22.1593 0.0180158C22.0828 -0.0674842 19.3266 0.0517658 16.9281 2.65502C14.5296 5.25602 14.8986 8.23952 14.9526 8.31602C15.0066 8.39252 18.3726 8.51177 20.5213 5.48552C22.6701 2.45927 22.2358 0.105766 22.1593 0.0180158ZM29.6158 26.4173C29.5078 26.2013 24.3846 23.6408 24.8616 18.7178C25.3386 13.7925 28.6303 12.4425 28.6821 12.2963C28.7338 12.15 27.3388 10.5188 25.8606 9.69302C24.7752 9.11083 23.574 8.77728 22.3438 8.71652C22.1008 8.70977 21.2571 8.50277 19.5223 8.97752C18.3793 9.29027 15.8031 10.3028 15.0943 10.3433C14.3833 10.3838 12.2683 9.16877 9.99358 8.84702C8.53783 8.56577 6.99433 9.14177 5.88958 9.58502C4.78708 10.026 2.69008 11.2815 1.22308 14.6183C-0.243917 17.9528 0.523333 23.2358 1.07233 24.8783C1.62133 26.5185 2.47858 29.2073 3.93658 31.1693C5.23258 33.3833 6.95158 34.92 7.66933 35.442C8.38708 35.964 10.4121 36.3105 11.8161 35.5928C12.9456 34.8998 14.9841 34.5015 15.7896 34.5308C16.5928 34.56 18.1768 34.8773 19.7991 35.7435C21.0838 36.1868 22.2988 36.0023 23.5161 35.5073C24.7333 35.01 26.4951 33.1245 28.5516 29.3018C29.3323 27.5243 29.6878 26.5635 29.6158 26.4173Z" fill="black"/>
</svg>
