<svg width="50" height="36" viewBox="0 0 50 36" fill="none" xmlns="http://www.w3.org/2000/svg">
<path d="M24.344 7.256L8.072 6.824L7.784 16.424L17.672 14.984C18.696 15.528 19.512 16.168 20.12 16.904C20.76 17.64 21.32 18.424 21.8 19.256L21.08 21.992L7.688 21.56L7.832 35.096L5.144 35.768C4.312 35.352 3.464 34.792 2.6 34.088C1.736 33.352 1.032 32.472 0.488 31.448L2.744 18.872L2.168 1.4L3.56 0.439999C3.912 0.503998 4.408 0.679997 5.048 0.967998C5.688 1.256 6.296 1.576 6.872 1.928L20.696 0.439999C21.592 0.983999 22.376 1.608 23.048 2.312C23.752 3.016 24.408 3.8 25.016 4.664L24.344 7.256Z" fill="black"/>
<path d="M48.2476 27.992L49.4476 30.392C48.9996 31.352 48.3756 32.312 47.5756 33.272C46.7756 34.2 45.9436 35.032 45.0796 35.768L32.7916 34.568L30.8236 35.768C29.4796 35.288 28.4396 34.568 27.7036 33.608L29.5756 18.872L28.9996 1.4L30.3916 0.439999C30.7436 0.503998 31.2236 0.679997 31.8316 0.967998C32.4716 1.256 33.0956 1.576 33.7036 1.928C34.3116 2.28 34.7596 2.616 35.0476 2.936L34.5196 19.496V29.912L48.2476 27.992Z" fill="#C40000"/>
</svg>
