<svg width="44" height="44" viewBox="0 0 44 44" fill="none" xmlns="http://www.w3.org/2000/svg">
<g filter="url(#filter0_d_71_582)">
<circle cx="20" cy="20" r="17.5" fill="#F8F8F8" stroke="white"/>
<path d="M27.3119 12.3548C24.7919 10.6366 21.6801 11.4384 20.0001 13.4048C18.3201 11.4384 15.2083 10.6271 12.6883 12.3548C11.3519 13.2712 10.5119 14.8175 10.4546 16.4498C10.321 20.1534 13.6046 23.1221 18.616 27.6753L18.7114 27.7612C19.4369 28.4198 20.5537 28.4198 21.2792 27.7516L21.3842 27.6562C26.3955 23.1125 29.6696 20.1439 29.5455 16.4403C29.4883 14.8175 28.6483 13.2712 27.3119 12.3548ZM20.0955 26.253L20.0001 26.3484L19.9046 26.253C15.361 22.1389 12.3637 19.4184 12.3637 16.6598C12.3637 14.7507 13.7955 13.3189 15.7046 13.3189C17.1746 13.3189 18.6064 14.2639 19.1123 15.5716H20.8973C21.3937 14.2639 22.8255 13.3189 24.2955 13.3189C26.2046 13.3189 27.6364 14.7507 27.6364 16.6598C27.6364 19.4184 24.6392 22.1389 20.0955 26.253Z" fill="black" fill-opacity="0.56"/>
</g>
<defs>
<filter id="filter0_d_71_582" x="0" y="0" width="44" height="44" filterUnits="userSpaceOnUse" color-interpolation-filters="sRGB">
<feFlood flood-opacity="0" result="BackgroundImageFix"/>
<feColorMatrix in="SourceAlpha" type="matrix" values="0 0 0 0 0 0 0 0 0 0 0 0 0 0 0 0 0 0 127 0" result="hardAlpha"/>
<feOffset dx="2" dy="2"/>
<feGaussianBlur stdDeviation="2"/>
<feComposite in2="hardAlpha" operator="out"/>
<feColorMatrix type="matrix" values="0 0 0 0 0 0 0 0 0 0 0 0 0 0 0 0 0 0 0.25 0"/>
<feBlend mode="normal" in2="BackgroundImageFix" result="effect1_dropShadow_71_582"/>
<feBlend mode="normal" in="SourceGraphic" in2="effect1_dropShadow_71_582" result="shape"/>
</filter>
</defs>
</svg>
