<svg width="31" height="31" viewBox="0 0 31 31" fill="none" xmlns="http://www.w3.org/2000/svg">
<circle cx="15.4937" cy="15.4937" r="14.4937" fill="black" stroke="black" stroke-width="2"/>
<path d="M12.0485 7.29102H18.9386C21.5634 7.29102 23.6961 9.42367 23.6961 12.0485V18.9386C23.6961 20.2004 23.1948 21.4105 22.3026 22.3026C21.4105 23.1948 20.2004 23.6961 18.9386 23.6961H12.0485C9.42367 23.6961 7.29102 21.5634 7.29102 18.9386V12.0485C7.29102 10.7867 7.79225 9.57664 8.68445 8.68445C9.57664 7.79225 10.7867 7.29102 12.0485 7.29102ZM11.8844 8.93152C11.1013 8.93152 10.3502 9.24263 9.79641 9.79641C9.24263 10.3502 8.93152 11.1013 8.93152 11.8844V19.1027C8.93152 20.735 10.2521 22.0556 11.8844 22.0556H19.1027C19.8858 22.0556 20.6369 21.7445 21.1907 21.1907C21.7445 20.6369 22.0556 19.8858 22.0556 19.1027V11.8844C22.0556 10.2521 20.735 8.93152 19.1027 8.93152H11.8844ZM19.7999 10.1619C20.0718 10.1619 20.3326 10.2699 20.5249 10.4622C20.7172 10.6545 20.8252 10.9153 20.8252 11.1872C20.8252 11.4591 20.7172 11.7199 20.5249 11.9122C20.3326 12.1045 20.0718 12.2125 19.7999 12.2125C19.5279 12.2125 19.2672 12.1045 19.0749 11.9122C18.8826 11.7199 18.7746 11.4591 18.7746 11.1872C18.7746 10.9153 18.8826 10.6545 19.0749 10.4622C19.2672 10.2699 19.5279 10.1619 19.7999 10.1619ZM15.4935 11.3923C16.5813 11.3923 17.6244 11.8244 18.3936 12.5935C19.1627 13.3627 19.5948 14.4058 19.5948 15.4935C19.5948 16.5813 19.1627 17.6244 18.3936 18.3936C17.6244 19.1627 16.5813 19.5948 15.4935 19.5948C14.4058 19.5948 13.3627 19.1627 12.5935 18.3936C11.8244 17.6244 11.3923 16.5813 11.3923 15.4935C11.3923 14.4058 11.8244 13.3627 12.5935 12.5935C13.3627 11.8244 14.4058 11.3923 15.4935 11.3923ZM15.4935 13.0328C14.8409 13.0328 14.215 13.292 13.7535 13.7535C13.292 14.215 13.0328 14.8409 13.0328 15.4935C13.0328 16.1462 13.292 16.7721 13.7535 17.2336C14.215 17.695 14.8409 17.9543 15.4935 17.9543C16.1462 17.9543 16.7721 17.695 17.2336 17.2336C17.695 16.7721 17.9543 16.1462 17.9543 15.4935C17.9543 14.8409 17.695 14.215 17.2336 13.7535C16.7721 13.292 16.1462 13.0328 15.4935 13.0328Z" fill="white"/>
</svg>
