<svg width="33" height="32" viewBox="0 0 33 32" fill="none" xmlns="http://www.w3.org/2000/svg">
<g clip-path="url(#clip0_21_74)">
<path d="M16.5 0C25.6221 0 33 7.15429 33 16C33 24.8457 25.6221 32 16.5 32C7.37786 32 0 24.8457 0 16C0 7.15429 7.37786 0 16.5 0ZM13.4829 24.4343C20.79 24.4343 24.7971 18.56 24.7971 13.4629V12.96C25.575 12.4114 26.2586 11.7257 26.7771 10.9486C26.07 11.2457 25.2921 11.4514 24.4907 11.5657C25.3157 11.0857 25.9521 10.3314 26.235 9.44C25.4571 9.87429 24.6086 10.1943 23.7129 10.3771C22.9821 9.62286 21.945 9.16572 20.8136 9.16572C18.6214 9.16572 16.83 10.9029 16.83 13.0286C16.83 13.3257 16.8536 13.6229 16.9479 13.8971C13.6479 13.7371 10.7014 12.2057 8.745 9.87429C8.415 10.4457 8.20286 11.1086 8.20286 11.8171C8.20286 13.1429 8.91 14.3314 9.97071 15.0171C9.31071 15.0171 8.69786 14.8343 8.17929 14.5371V14.5829C8.17929 16.4571 9.54643 18.0114 11.3614 18.3771C11.0314 18.4686 10.6779 18.5143 10.3243 18.5143C10.065 18.5143 9.82929 18.4914 9.57 18.4457C10.065 19.9771 11.55 21.0971 13.2707 21.12C11.9036 22.1486 10.1829 22.7657 8.32071 22.7657C7.99071 22.7657 7.68429 22.7657 7.37786 22.72C9.12214 23.8171 11.22 24.4571 13.4593 24.4571" fill="black"/>
</g>
<defs>
<clipPath id="clip0_21_74">
<rect width="33" height="32" fill="white"/>
</clipPath>
</defs>
</svg>
