<svg width="33" height="32" viewBox="0 0 33 32" fill="none" xmlns="http://www.w3.org/2000/svg">
<path d="M31.5418 16.0003C31.5418 24.0273 24.835 30.5837 16.5002 30.5837C8.16536 30.5837 1.4585 24.0273 1.4585 16.0003C1.4585 7.9733 8.16536 1.41699 16.5002 1.41699C24.835 1.41699 31.5418 7.9733 31.5418 16.0003Z" stroke="black" stroke-width="2"/>
<path d="M31.0832 15.9997C31.0832 8.17967 24.5498 1.83301 16.4998 1.83301C8.44984 1.83301 1.9165 8.17967 1.9165 15.9997C1.9165 22.8563 6.93317 28.5655 13.5832 29.883V20.2497H10.6665V15.9997H13.5832V12.458C13.5832 9.72384 15.8728 7.49967 18.6873 7.49967H22.3332V11.7497H19.4165C18.6144 11.7497 17.9582 12.3872 17.9582 13.1663V15.9997H22.3332V20.2497H17.9582V30.0955C25.3228 29.3872 31.0832 23.3522 31.0832 15.9997Z" fill="black"/>
</svg>
