<svg width="336" height="41" viewBox="0 0 336 41" fill="none" xmlns="http://www.w3.org/2000/svg">
<path d="M24.344 12.256L8.072 11.824L7.784 21.424L17.672 19.984C18.696 20.528 19.512 21.168 20.12 21.904C20.76 22.64 21.32 23.424 21.8 24.256L21.08 26.992L7.688 26.56L7.832 40.096L5.144 40.768C4.312 40.352 3.464 39.792 2.6 39.088C1.736 38.352 1.032 37.472 0.488 36.448L2.744 23.872L2.168 6.4L3.56 5.44C3.912 5.504 4.408 5.68 5.048 5.968C5.688 6.256 6.296 6.576 6.872 6.928L20.696 5.44C21.592 5.984 22.376 6.608 23.048 7.312C23.752 8.016 24.408 8.8 25.016 9.664L24.344 12.256ZM58.2229 40.5114C55.5752 40.5114 53.2854 39.9489 51.3536 38.8239C49.4331 37.6875 47.9502 36.108 46.9047 34.0852C45.8593 32.0511 45.3365 29.6932 45.3365 27.0114C45.3365 24.3068 45.8593 21.9432 46.9047 19.9205C47.9502 17.8864 49.4331 16.3068 51.3536 15.1818C53.2854 14.0455 55.5752 13.4773 58.2229 13.4773C60.8706 13.4773 63.1547 14.0455 65.0752 15.1818C67.007 16.3068 68.4956 17.8864 69.5411 19.9205C70.5865 21.9432 71.1093 24.3068 71.1093 27.0114C71.1093 29.6932 70.5865 32.0511 69.5411 34.0852C68.4956 36.108 67.007 37.6875 65.0752 38.8239C63.1547 39.9489 60.8706 40.5114 58.2229 40.5114ZM58.257 34.8864C59.4615 34.8864 60.4672 34.5455 61.274 33.8636C62.0809 33.1705 62.6888 32.2273 63.0979 31.0341C63.5184 29.8409 63.7286 28.483 63.7286 26.9602C63.7286 25.4375 63.5184 24.0795 63.0979 22.8864C62.6888 21.6932 62.0809 20.75 61.274 20.0568C60.4672 19.3636 59.4615 19.017 58.257 19.017C57.0411 19.017 56.0184 19.3636 55.1888 20.0568C54.3706 20.75 53.7513 21.6932 53.3309 22.8864C52.9218 24.0795 52.7172 25.4375 52.7172 26.9602C52.7172 28.483 52.9218 29.8409 53.3309 31.0341C53.7513 32.2273 54.3706 33.1705 55.1888 33.8636C56.0184 34.5455 57.0411 34.8864 58.257 34.8864ZM106.14 40.5114C103.493 40.5114 101.203 39.9489 99.2711 38.8239C97.3506 37.6875 95.8677 36.108 94.8222 34.0852C93.7768 32.0511 93.254 29.6932 93.254 27.0114C93.254 24.3068 93.7768 21.9432 94.8222 19.9205C95.8677 17.8864 97.3506 16.3068 99.2711 15.1818C101.203 14.0455 103.493 13.4773 106.14 13.4773C108.788 13.4773 111.072 14.0455 112.993 15.1818C114.924 16.3068 116.413 17.8864 117.459 19.9205C118.504 21.9432 119.027 24.3068 119.027 27.0114C119.027 29.6932 118.504 32.0511 117.459 34.0852C116.413 36.108 114.924 37.6875 112.993 38.8239C111.072 39.9489 108.788 40.5114 106.14 40.5114ZM106.174 34.8864C107.379 34.8864 108.385 34.5455 109.192 33.8636C109.998 33.1705 110.606 32.2273 111.015 31.0341C111.436 29.8409 111.646 28.483 111.646 26.9602C111.646 25.4375 111.436 24.0795 111.015 22.8864C110.606 21.6932 109.998 20.75 109.192 20.0568C108.385 19.3636 107.379 19.017 106.174 19.017C104.959 19.017 103.936 19.3636 103.106 20.0568C102.288 20.75 101.669 21.6932 101.248 22.8864C100.839 24.0795 100.635 25.4375 100.635 26.9602C100.635 28.483 100.839 29.8409 101.248 31.0341C101.669 32.2273 102.288 33.1705 103.106 33.8636C103.936 34.5455 104.959 34.8864 106.174 34.8864ZM165.587 33.808C165.875 34.192 166.163 34.736 166.451 35.44C166.739 36.144 166.915 36.864 166.979 37.6L160.499 40.768C160.179 40.736 159.715 40.56 159.107 40.24C158.531 39.92 157.939 39.568 157.331 39.184C156.755 38.8 156.323 38.496 156.035 38.272L156.275 33.424C154.483 35.568 152.643 37.296 150.755 38.608C148.899 39.92 147.347 40.64 146.099 40.768C145.619 40.512 145.027 40.064 144.323 39.424C143.651 38.752 143.011 38.016 142.403 37.216C141.827 36.384 141.443 35.6 141.251 34.864L142.259 21.616C142.739 20.592 143.427 19.568 144.323 18.544C145.219 17.488 146.115 16.64 147.011 16C150.243 15.168 153.475 15.056 156.707 15.664L156.755 6.784L152.963 7.744C152.739 7.36 152.467 6.832 152.147 6.16C151.827 5.456 151.635 4.736 151.571 4L158.051 0.831998C158.371 0.863997 158.819 1.024 159.395 1.312C160.003 1.6 160.595 1.936 161.171 2.32C161.779 2.704 162.227 3.04 162.515 3.328L161.075 28.192L161.507 34.864L165.587 33.808ZM147.875 34.912C148.803 34.592 149.795 33.952 150.851 32.992C151.939 32 152.979 30.816 153.971 29.44C154.995 28.032 155.891 26.544 156.659 24.976L156.707 20.608C155.331 20.288 153.923 20.192 152.483 20.32C151.043 20.416 149.715 20.624 148.499 20.944C147.891 22.608 147.459 24.288 147.203 25.984C146.979 27.648 146.867 29.168 146.867 30.544C146.899 31.92 147.011 33.008 147.203 33.808C147.395 34.608 147.619 34.976 147.875 34.912Z" fill="black"/>
<path d="M207.03 32.992L208.23 35.392C207.782 36.352 207.158 37.312 206.358 38.272C205.558 39.2 204.726 40.032 203.862 40.768L191.574 39.568L189.606 40.768C188.262 40.288 187.222 39.568 186.486 38.608L188.358 23.872L187.782 6.4L189.174 5.44C189.526 5.504 190.006 5.68 190.614 5.968C191.254 6.256 191.878 6.576 192.486 6.928C193.094 7.28 193.542 7.616 193.83 7.936L193.302 24.496V34.912L207.03 32.992ZM251.882 33.808C252.17 34.192 252.458 34.736 252.746 35.44C253.034 36.144 253.21 36.864 253.274 37.6L246.794 40.768C246.026 40.544 245.194 40.176 244.298 39.664C243.434 39.152 242.778 38.688 242.33 38.272L242.522 34.768C240.922 36.528 239.306 37.936 237.674 38.992C236.042 40.048 234.618 40.64 233.402 40.768C232.922 40.512 232.33 40.064 231.626 39.424C230.954 38.752 230.314 38.016 229.706 37.216C229.13 36.384 228.746 35.6 228.554 34.864L229.562 21.616C230.042 20.592 230.73 19.568 231.626 18.544C232.522 17.488 233.418 16.64 234.314 16C236.618 15.584 238.858 15.344 241.034 15.28C243.21 15.184 245.61 15.552 248.234 16.384C248.586 16.768 248.906 17.232 249.194 17.776C249.482 18.32 249.722 18.848 249.914 19.36C250.138 19.84 250.266 20.208 250.298 20.464C249.978 21.872 249.546 23.248 249.002 24.592C248.49 25.936 247.866 27.216 247.13 28.432L247.706 34.864L251.882 33.808ZM235.178 34.912C236.33 34.496 237.594 33.6 238.97 32.224C240.378 30.848 241.658 29.216 242.81 27.328L243.002 20.08C241.69 20.048 240.426 20.112 239.21 20.272C237.994 20.432 236.842 20.672 235.754 20.992C235.178 22.592 234.762 24.224 234.506 25.888C234.282 27.52 234.17 29.04 234.17 30.448C234.202 31.824 234.314 32.928 234.506 33.76C234.698 34.592 234.922 34.976 235.178 34.912ZM291.143 15.232C291.719 15.488 292.327 15.904 292.967 16.48C293.607 17.056 294.183 17.712 294.695 18.448C295.239 19.184 295.623 19.936 295.847 20.704L295.127 34.96C294.839 35.504 294.407 36.112 293.831 36.784C293.255 37.424 292.615 38.048 291.911 38.656C291.207 39.232 290.519 39.712 289.847 40.096C287.511 40.416 285.127 40.608 282.695 40.672C280.295 40.768 278.135 40.544 276.215 40C275.895 39.616 275.543 39.168 275.159 38.656C274.807 38.144 274.503 37.648 274.247 37.168C273.991 36.688 273.831 36.336 273.767 36.112C273.927 35.184 274.135 34.272 274.391 33.376C274.679 32.448 274.999 31.552 275.351 30.688L275.399 27.664L275.543 6.784L271.799 7.744C271.575 7.36 271.303 6.832 270.983 6.16C270.663 5.456 270.471 4.736 270.407 4L276.887 0.831998C277.207 0.863997 277.655 1.024 278.231 1.312C278.839 1.6 279.431 1.936 280.007 2.32C280.615 2.704 281.063 3.04 281.351 3.328L280.007 22.96C281.319 21.36 282.663 19.984 284.039 18.832C285.415 17.68 286.727 16.8 287.975 16.192C289.223 15.552 290.279 15.232 291.143 15.232ZM280.535 35.968C281.879 36.032 283.239 35.984 284.615 35.824C285.991 35.664 287.399 35.44 288.839 35.152C289.415 33.168 289.799 31.248 289.991 29.392C290.215 27.504 290.295 25.808 290.231 24.304C290.199 22.768 290.087 21.568 289.895 20.704C288.967 20.992 287.911 21.68 286.727 22.768C285.575 23.856 284.439 25.184 283.319 26.752C282.199 28.32 281.207 29.968 280.343 31.696L280.535 35.968ZM322.596 20.704C323.076 21.696 323.828 22.576 324.852 23.344C325.876 24.08 327.028 24.864 328.308 25.696C329.588 26.496 330.852 27.456 332.1 28.576C333.38 29.664 334.516 31.056 335.508 32.752C335.252 34.224 334.788 35.616 334.116 36.928C333.444 38.24 332.628 39.264 331.668 40C330.1 40.416 328.372 40.64 326.484 40.672C324.596 40.736 322.58 40.56 320.436 40.144C320.02 39.824 319.54 39.424 318.996 38.944C318.452 38.432 317.972 37.904 317.556 37.36L317.796 31.072C318.34 30.88 318.98 30.768 319.716 30.736C320.452 30.672 321.124 30.72 321.732 30.88L322.5 36.112C323.908 36.336 325.348 36.352 326.82 36.16C328.324 35.936 329.572 35.584 330.564 35.104C329.764 34.048 328.756 33.104 327.54 32.272C326.356 31.44 325.108 30.624 323.796 29.824C322.516 28.992 321.316 28.048 320.196 26.992C319.108 25.936 318.26 24.64 317.652 23.104C317.748 22.4 317.956 21.6 318.276 20.704C318.596 19.776 318.98 18.896 319.428 18.064C319.908 17.232 320.42 16.576 320.964 16.096C323.044 15.52 325.028 15.232 326.916 15.232C328.804 15.2 330.82 15.408 332.964 15.856C333.38 16.112 333.812 16.56 334.26 17.2C334.74 17.84 335.108 18.352 335.364 18.736L334.692 24.688C334.148 24.88 333.524 24.976 332.82 24.976C332.116 24.976 331.444 24.912 330.804 24.784L330.372 19.888C329.092 19.792 327.764 19.808 326.388 19.936C325.044 20.064 323.78 20.32 322.596 20.704Z" fill="#C40000"/>
</svg>
