<svg width="533" height="35" viewBox="0 0 533 35" fill="none" xmlns="http://www.w3.org/2000/svg">
<line y1="18" x2="237.199" y2="18" stroke="#7A7A7A" stroke-width="2"/>
<line x1="295.801" y1="18" x2="533" y2="18" stroke="#7A7A7A" stroke-width="2"/>
<path d="M261.227 24.2642C260 24.2642 258.929 23.983 258.014 23.4205C257.099 22.858 256.389 22.071 255.884 21.0597C255.378 20.0483 255.125 18.8665 255.125 17.5142C255.125 16.1562 255.378 14.9687 255.884 13.9517C256.389 12.9347 257.099 12.1449 258.014 11.5824C258.929 11.0199 260 10.7386 261.227 10.7386C262.455 10.7386 263.526 11.0199 264.44 11.5824C265.355 12.1449 266.065 12.9347 266.571 13.9517C267.077 14.9687 267.33 16.1562 267.33 17.5142C267.33 18.8665 267.077 20.0483 266.571 21.0597C266.065 22.071 265.355 22.858 264.44 23.4205C263.526 23.983 262.455 24.2642 261.227 24.2642ZM261.236 22.125C262.031 22.125 262.69 21.9148 263.213 21.4943C263.736 21.0739 264.122 20.5142 264.372 19.8153C264.628 19.1165 264.756 18.3466 264.756 17.5057C264.756 16.6705 264.628 15.9034 264.372 15.2045C264.122 14.5 263.736 13.9347 263.213 13.5085C262.69 13.0824 262.031 12.8693 261.236 12.8693C260.435 12.8693 259.77 13.0824 259.241 13.5085C258.719 13.9347 258.33 14.5 258.074 15.2045C257.824 15.9034 257.699 16.6705 257.699 17.5057C257.699 18.3466 257.824 19.1165 258.074 19.8153C258.33 20.5142 258.719 21.0739 259.241 21.4943C259.77 21.9148 260.435 22.125 261.236 22.125ZM270.174 24V10.9091H272.637V12.9886H272.773C273.012 12.2841 273.433 11.7301 274.035 11.3267C274.643 10.9176 275.33 10.7131 276.097 10.7131C276.256 10.7131 276.444 10.7187 276.66 10.7301C276.881 10.7415 277.055 10.7557 277.18 10.7727V13.2102C277.077 13.1818 276.896 13.1506 276.634 13.1165C276.373 13.0767 276.112 13.0568 275.85 13.0568C275.248 13.0568 274.711 13.1847 274.239 13.4403C273.773 13.6903 273.404 14.0398 273.131 14.4886C272.859 14.9318 272.722 15.4375 272.722 16.0057V24H270.174Z" fill="#7A7A7A"/>
</svg>
